# xmcd
#
# Track frame offsets: 
#        150
#        16354
#        30865
#        40961
#        54325
#        69252
#        80690
#        100301
#        110869
#        120520
#        134455
#        148751
#        162592
#        175372
#        186792
#
# Disc length: 2665 seconds
#
# Revision: 4
# Processed by: cddbd v1.5.2PL0 Copyright (c) Steve Scherf et al.
# Submitted via: ExactAudioCopy v0.99pb4
#
DISCID=d00a670f
DTITLE=Various Artist - Superstars of Country: Good Ol' Songs (1 of 2)
DYEAR=2005
DGENRE=Country
TTITLE0=Alabama - The Closer You Get
TTITLE1=Ronnie Milsap - There's No Gettin' Over Me
TTITLE2=Charley Pride - Is Anybody Goin' to San Antone
TTITLE3=Waylon Jennings and Willie Nelson - Good Hearted Woman
TTITLE4=Bellamy Brothers - Let Your Love Flow
TTITLE5=Cristal Gale - Don't it Make My Brown Eyes Blue
TTITLE6=Elvis Presley - Suspicious Minds
TTITLE7=Jerry Reed - Amos Moses
TTITLE8=Waylon Jennings - Theme from "The Dukes of Hazzard" (Good Ol' 
TTITLE8=Boys)
TTITLE9=Dolly Parton - Coat of Many Colors
TTITLE10=Earl Thomas Conley - Holding Her and Loving You
TTITLE11=George Jones - A Good Year for the Roses
TTITLE12=Porter Wagoner - The Carroll County Accident
TTITLE13=Dave and Sugar - Golden Tears
TTITLE14=Dolly Parton - I Will Always Love You
EXTD=
EXTT0=
EXTT1=
EXTT2=
EXTT3=
EXTT4=
EXTT5=
EXTT6=
EXTT7=
EXTT8=
EXTT9=
EXTT10=
EXTT11=
EXTT12=
EXTT13=
EXTT14=
PLAYORDER=
